<?xml version="1.0" encoding="utf-8"?>
<!-- Generator: Adobe Illustrator 26.5.0, SVG Export Plug-In . SVG Version: 6.00 Build 0)  -->
<svg version="1.1" id="Layer_2_00000119084296751487728550000018087160022300551298_"
	 xmlns="http://www.w3.org/2000/svg" xmlns:xlink="http://www.w3.org/1999/xlink" x="0px" y="0px" viewBox="0 0 1105.1 374.4"
	 style="enable-background:new 0 0 1105.1 374.4;" xml:space="preserve">
<style type="text/css">
	.st0{fill:#939496;}
	.st1{fill:#636568;}
	.st2{fill:#FCF2DD;}
	.st3{fill:#424A9F;}
	.st4{fill:#DBCEB1;}
	.st5{opacity:0.55;fill:#CABD9B;enable-background:new    ;}
	.st6{opacity:0.49;fill:#B2A382;enable-background:new    ;}
	.st7{fill-rule:evenodd;clip-rule:evenodd;fill:#939496;}
</style>
<g id="Layer_1-2">
	<g>
		<path class="st0" d="M443.5,204.2v84.6h-42.3c-7.3,0-13.3-0.5-17.8-1.5s-8-3-10.3-5.9s-3.8-7.2-4.7-12.8s-1.3-12.9-1.3-22.1
			s0.4-16.5,1.3-22.1s2.4-9.8,4.7-12.8s5.7-4.9,10.3-5.9s10.5-1.5,17.8-1.5L443.5,204.2L443.5,204.2z M434.1,214.7h-42.5
			c-5.2,0-8.9,0.9-11.2,2.7s-3.4,4.8-3.4,9v40.3c0,4.2,1.1,7.2,3.4,8.9s6,2.6,11.2,2.6h42.5V214.7L434.1,214.7z M392.3,182.2
			c-1,0.1-2.1-0.3-3.3-1.2s-2.3-2-3.2-3.3s-1.4-2.5-1.4-3.4c0-1.1,0.5-2.2,1.4-3.4s2-2.2,3.2-3.1c1.3-0.9,2.4-1.4,3.3-1.5
			c1.1,0.1,2.2,0.6,3.5,1.5s2.3,1.9,3.2,3.1s1.4,2.3,1.4,3.4c0,1-0.5,2.1-1.4,3.3s-2.1,2.4-3.3,3.3
			C394.4,182,393.3,182.4,392.3,182.2L392.3,182.2z M415.2,182.2c-1,0.1-2.1-0.3-3.3-1.2c-1.3-0.9-2.3-2-3.2-3.3s-1.4-2.5-1.4-3.4
			c0-1.1,0.5-2.2,1.4-3.4s2-2.2,3.2-3.1c1.3-0.9,2.4-1.4,3.3-1.5c1.1,0.1,2.2,0.6,3.5,1.5s2.3,1.9,3.2,3.1s1.4,2.3,1.4,3.4
			c0,1-0.5,2.1-1.4,3.3s-2.1,2.4-3.3,3.3C417.3,182,416.2,182.4,415.2,182.2L415.2,182.2z M442.7,278.2h20.9v10.6h-20.9V278.2z"/>
		<path class="st0" d="M495.3,278.2h23.4v10.6h-62.3v-10.6h29.5v-74h9.4L495.3,278.2L495.3,278.2z M490.6,319.2
			c-1,0.1-2.1-0.3-3.3-1.2c-1.3-0.9-2.3-2-3.2-3.3c-0.9-1.3-1.4-2.5-1.4-3.4c0-1.1,0.5-2.2,1.4-3.4s2-2.2,3.2-3.1
			c1.3-0.9,2.4-1.4,3.3-1.5c1.1,0.1,2.2,0.6,3.5,1.5s2.3,2,3.2,3.1c0.9,1.2,1.4,2.3,1.4,3.4c0,1-0.5,2.1-1.4,3.3
			c-1,1.3-2.1,2.4-3.3,3.3C492.7,318.9,491.6,319.3,490.6,319.2L490.6,319.2z"/>
		<path class="st0" d="M550.4,278.2h23.4v10.6h-62.3v-10.6H541v-74h9.4V278.2z M534.2,182.2c-1,0.1-2.1-0.3-3.3-1.2s-2.3-2-3.2-3.3
			c-0.9-1.3-1.3-2.5-1.3-3.4c0-1.1,0.5-2.2,1.3-3.4c0.9-1.2,2-2.2,3.2-3.1s2.4-1.4,3.3-1.5c1.1,0.1,2.2,0.6,3.5,1.5s2.3,1.9,3.2,3.1
			c0.9,1.2,1.3,2.3,1.3,3.4c0,1-0.5,2.1-1.4,3.3s-2.1,2.4-3.3,3.3S535.1,182.4,534.2,182.2L534.2,182.2z M557,182.2
			c-1,0.1-2.1-0.3-3.3-1.2s-2.3-2-3.2-3.3c-0.9-1.3-1.3-2.5-1.3-3.4c0-1.1,0.5-2.2,1.3-3.4c0.9-1.2,2-2.2,3.2-3.1s2.4-1.4,3.3-1.5
			c1.1,0.1,2.2,0.6,3.5,1.5s2.3,1.9,3.2,3.1c0.9,1.2,1.3,2.3,1.3,3.4c0,1-0.5,2.1-1.4,3.3s-2.1,2.4-3.3,3.3S558,182.4,557,182.2
			L557,182.2z"/>
		<path class="st0" d="M566.6,288.8v-10.6h99.2v-47.9h-64.3c-5,0-8.8-1.1-11.4-3.1c-2.6-2.1-3.9-5.2-3.9-9.3c0-3.7,0.7-8,2.2-12.8
			s3.4-9.8,5.8-14.9s5.2-10,8.4-14.8c3.2-4.7,6.5-8.8,9.8-12.1l8.5,4.3c-3.7,4.2-7.1,8.4-10.1,12.7c-3,4.3-5.6,8.6-7.8,13
			c-2.2,4.4-4,8.8-5.5,13.2s-2.5,8.9-3.2,13.3h66.8c3.7,0,6.6,0.4,8.6,1.3c2,0.8,3.5,2.3,4.3,4.3c0.8,2,1.3,4.9,1.3,8.5v54.9
			L566.6,288.8L566.6,288.8z M675.1,278.2h23.4v10.6h-23.4V278.2z"/>
		<path class="st0" d="M758.6,202.8c8,0,14.3,0.6,18.9,1.9s7.8,3.4,9.7,6.3s2.9,7.1,2.9,12.3v65.5h-98.8v-10.6h89.5v-62.5
			c-3.4-1-6.8-1.6-10.3-2s-7.6-0.5-12.2-0.5s-9.5,0.4-15.3,1.1s-11,1.8-15.8,3.2l-3.4-8.1c2.6-1.6,5.9-2.8,9.9-3.8
			c4-1,8.2-1.7,12.6-2.2C750.7,203,754.8,202.8,758.6,202.8L758.6,202.8z M722.6,284.1c-3.1-3.7-5.2-8.8-6.3-15.2
			c-1.1-6.4-1.6-12.9-1.6-19.5c0-7.2,0.8-14.2,2.5-21s3.8-13.1,6.5-19l7.6,3.4c-2,6.2-3.8,12.4-5.1,18.4s-2.1,12.1-2.1,18.2
			c0,4.1,0.2,8.4,0.7,12.9s1.3,8.8,2.6,12.9s3,7.7,5.3,10.8L722.6,284.1L722.6,284.1z"/>
	</g>
	<g>
		<path class="st0" d="M471.9,372.1h8c2.3,0,3.9-0.1,4.7-0.4s1.3-0.9,1.3-1.7v-30.2h2.1v27.2c0,1.5-0.1,2.8-0.4,3.8
			s-0.8,1.7-1.5,2.3s-1.8,0.9-3.1,1.1c-1.3,0.2-3.1,0.3-5.2,0.3c-1.9,0-3.4-0.1-4.5-0.4s-2-0.7-2.6-1.3c-0.6-0.6-1-1.5-1.2-2.6
			s-0.3-2.6-0.3-4.3c0-1.1,0-2.4,0.1-3.6c0.1-1.2,0.2-2.5,0.4-3.6c0.2-1.1,0.4-2.1,0.6-2.9l1.9,0.4c-0.3,1.7-0.5,3.3-0.7,4.9
			s-0.2,3-0.2,4.3c0,1.4,0,2.6,0.1,3.7C471.5,370,471.7,371,471.9,372.1z M488,362.4h5.2v2.4H488V362.4z"/>
		<path class="st0" d="M491.6,364.8v-2.4h25.1l-2.3-8.8c-0.6-2.1-1.4-3.7-2.5-4.8s-2.5-1.9-4.1-2.3s-3.6-0.6-5.9-0.6l0.2-2.2
			c2.6,0,4.8,0.2,6.7,0.7s3.4,1.4,4.7,2.7s2.2,3.2,2.8,5.8l2.6,10.1v1.8L491.6,364.8L491.6,364.8z M496.4,363.1c0-2.2,0-3.9,0.2-5.2
			c0.1-1.3,0.4-2.2,0.8-2.9c0.4-0.6,1-1,1.9-1.2c0.9-0.2,2.1-0.3,3.6-0.3c1.6,0,3,0.1,3.9,0.3c1,0.2,1.6,0.6,2.1,1.2
			c0.4,0.6,0.7,1.6,0.8,2.9s0.2,3,0.2,5.2H496.4L496.4,363.1z M508,355.3h-7.5c-0.9,0-1.5,0.1-1.8,0.4c-0.3,0.2-0.5,0.7-0.5,1.4v6.1
			h9.8V355.3L508,355.3z M518,362.5h3.7v2.3H518V362.5z"/>
		<path class="st0" d="M528.8,364.8h-8.6v-2.4h6.6v-12.8h2.1V364.8L528.8,364.8z M533.1,364.8h-4.3v-2.4h6.1c1.2,0,2-0.1,2.5-0.4
			s0.7-0.9,0.7-1.7v-10.7h2.1v8.6c0,1.4-0.1,2.5-0.3,3.3s-0.5,1.5-1,2s-1.2,0.8-2.1,1S534.6,364.8,533.1,364.8L533.1,364.8z
			 M545.6,364.8c-1.6,0-2.9-0.1-3.9-0.3s-1.7-0.5-2.3-1s-0.9-1.1-1.1-2s-0.3-2-0.3-3.3v-8.6h2.1v10.7c0,0.9,0.2,1.4,0.7,1.7
			c0.5,0.3,1.3,0.4,2.5,0.4h5.6c0.2-1.1,0.3-2.3,0.4-3.5c0.1-1.2,0.1-2.7,0.1-4.3c0-1.2-0.1-2.5-0.3-3.8c-0.2-1.4-0.4-2.8-0.7-4.3
			l2-0.4c0.2,0.6,0.3,1.5,0.5,2.5s0.3,2.1,0.4,3.1c0.1,1.1,0.2,2,0.2,2.8c0,2.6-0.1,4.6-0.4,6.1s-0.8,2.5-1.6,3.2
			S547.4,364.8,545.6,364.8L545.6,364.8z"/>
		<path class="st0" d="M561.9,338.7l3.6-1v1.5l-9,2.4v-1.5l1.9-0.5c-0.2-0.4-0.3-0.8-0.4-1.3c-0.1-0.5-0.1-1.2-0.1-2
			c0-1.5,0.3-2.7,0.8-3.5c0.6-0.8,1.3-1.4,2.4-1.6s2.2-0.4,3.6-0.4v1.9c-0.8,0-1.6,0-2.5,0.2s-1.6,0.4-2.1,0.8l-0.1,4.2
			c0,0.5,0.2,0.8,0.4,0.9S561.2,338.9,561.9,338.7L561.9,338.7z M560,364.8V346h2.1v18.8H560z"/>
		<path class="st0" d="M585.3,364.8c-1.3,0-2.3-0.2-3-0.8c-0.7-0.5-1.2-1.3-1.6-2.5s-0.5-2.7-0.5-4.7c0-1.1,0.1-2.4,0.3-3.7
			s0.5-2.4,0.8-3.1l1.9,0.4c-0.3,1.1-0.5,2.2-0.7,3.3s-0.2,2-0.2,2.9c0,1.2,0,2.3,0.1,3.2s0.3,1.8,0.5,2.6h22.5V346h2.1v18.8H585.3
			L585.3,364.8z M591.9,345.1c-0.2,0-0.5-0.1-0.7-0.3c-0.3-0.2-0.5-0.5-0.7-0.7c-0.2-0.3-0.3-0.5-0.3-0.8c0-0.2,0.1-0.5,0.3-0.8
			c0.2-0.3,0.4-0.5,0.7-0.7c0.3-0.2,0.5-0.3,0.7-0.3c0.2,0,0.5,0.1,0.8,0.3c0.3,0.2,0.5,0.4,0.7,0.7c0.2,0.3,0.3,0.5,0.3,0.8
			c0,0.2-0.1,0.5-0.3,0.7s-0.5,0.5-0.7,0.7C592.3,345,592.1,345.1,591.9,345.1L591.9,345.1z M597,345.1c-0.2,0-0.5-0.1-0.7-0.3
			c-0.3-0.2-0.5-0.5-0.7-0.7c-0.2-0.3-0.3-0.5-0.3-0.8c0-0.2,0.1-0.5,0.3-0.8c0.2-0.3,0.4-0.5,0.7-0.7c0.3-0.2,0.5-0.3,0.7-0.3
			c0.2,0,0.5,0.1,0.8,0.3c0.3,0.2,0.5,0.4,0.7,0.7c0.2,0.3,0.3,0.5,0.3,0.8c0,0.2-0.1,0.5-0.3,0.7s-0.5,0.5-0.7,0.7
			C597.4,345,597.2,345.1,597,345.1L597,345.1z M607.3,362.4h5.5v2.4h-5.5V362.4z"/>
		<path class="st0" d="M628.4,354.9l1.9,1c-0.5,1.1-1,2.1-1.7,3.2s-1.5,2-2.4,2.8s-2.1,1.5-3.3,2c-1.3,0.5-2.8,0.8-4.5,0.8h-7.2
			v-2.4h8.8c1.1,0,2-0.2,2.9-0.7s1.7-1.1,2.4-1.8s1.3-1.5,1.8-2.4C627.6,356.6,628,355.7,628.4,354.9L628.4,354.9z M632.9,362.4h2.1
			v2.4h-1.4c-0.8,0-1.4-0.2-1.8-0.5s-0.8-0.9-1.1-1.7l-2.9-7.6c-0.8-1.8-1.6-3.1-2.5-4.1s-2-1.7-3.3-2.1c-1.3-0.4-2.9-0.6-4.9-0.6
			c-0.4,0-0.8,0-1.2,0c-0.4,0-0.9,0-1.4,0.1l-0.4-2.3c0.7,0,1.3-0.1,1.9-0.1c0.6,0,1.2,0,1.7,0c2.2,0,4,0.3,5.5,0.8
			c1.5,0.5,2.8,1.4,3.8,2.7s1.9,2.8,2.7,4.8L632.9,362.4L632.9,362.4z"/>
		<path class="st0" d="M642,362.4h5.2v2.4h-13.8v-2.4h6.6V346h2.1V362.4z M641,371.5c-0.2,0-0.5-0.1-0.7-0.3
			c-0.3-0.2-0.5-0.5-0.7-0.7s-0.3-0.5-0.3-0.8c0-0.2,0.1-0.5,0.3-0.8c0.2-0.3,0.4-0.5,0.7-0.7c0.3-0.2,0.5-0.3,0.7-0.3
			c0.2,0,0.5,0.1,0.8,0.3s0.5,0.4,0.7,0.7c0.2,0.3,0.3,0.5,0.3,0.8c0,0.2-0.1,0.5-0.3,0.7s-0.5,0.5-0.7,0.7
			C641.4,371.5,641.2,371.6,641,371.5L641,371.5z"/>
		<path class="st0" d="M673.9,362.4v2.4h-28.3v-2.4H673.9z M671.8,364.8v-16.4c-0.9-0.3-2.4-0.4-4.3-0.4c-4.5,0-7.9,1.3-10,3.8
			s-3.2,6.5-3.2,11.8h-2.1V346h2.1v8.2c0.6-1.9,1.6-3.4,2.9-4.7c1.3-1.3,2.9-2.2,4.8-2.9s4.1-1,6.6-1c1.3,0,2.3,0.1,3.1,0.4
			s1.3,0.6,1.7,1.2s0.5,1.3,0.5,2.3v15.4L671.8,364.8L671.8,364.8z"/>
		<path class="st0" d="M684.5,338.7l3.6-1v1.5l-9,2.4v-1.5l1.9-0.5c-0.2-0.4-0.3-0.8-0.4-1.3c-0.1-0.5-0.1-1.2-0.1-2
			c0-1.5,0.3-2.7,0.8-3.5c0.6-0.8,1.3-1.4,2.4-1.6s2.2-0.4,3.6-0.4v1.9c-0.8,0-1.6,0-2.5,0.2s-1.6,0.4-2.1,0.8l-0.1,4.2
			c0,0.5,0.2,0.8,0.4,0.9S683.7,338.9,684.5,338.7L684.5,338.7z M682.5,364.8V346h2.1v18.8H682.5z"/>
		<path class="st0" d="M705.5,362.4H728v-22.8h2.1v25.2h-22.3c-1.3,0-2.3-0.2-3-0.8c-0.7-0.5-1.2-1.3-1.6-2.5s-0.5-2.7-0.5-4.7
			c0-1.1,0.1-2.4,0.3-3.7s0.5-2.4,0.8-3.1l1.9,0.4c-0.3,1.1-0.5,2.2-0.7,3.3s-0.2,2-0.2,2.9c0,1.2,0,2.3,0.1,3.2
			S705.3,361.6,705.5,362.4L705.5,362.4z M717.5,346.7l3.6-1v1.5l-9,2.4v-1.5l1.9-0.5c-0.2-0.4-0.3-0.8-0.4-1.3
			c-0.1-0.5-0.1-1.2-0.1-2c0-1.5,0.3-2.7,0.9-3.5c0.6-0.8,1.4-1.4,2.4-1.6s2.2-0.4,3.6-0.4v1.9c-0.8,0-1.6,0-2.5,0.2
			s-1.6,0.4-2.1,0.8l-0.1,4.2c0,0.5,0.2,0.8,0.4,0.9S716.8,346.9,717.5,346.7z M730.1,362.4h5.2v2.4h-5.2V362.4z"/>
		<path class="st0" d="M733.7,364.8v-2.4h6.6V346h2.1v18.8H733.7z M738.7,341.1c-0.2,0-0.5-0.1-0.7-0.3c-0.3-0.2-0.5-0.5-0.7-0.7
			c-0.2-0.3-0.3-0.5-0.3-0.8c0-0.2,0.1-0.5,0.3-0.8c0.2-0.3,0.4-0.5,0.7-0.7c0.3-0.2,0.5-0.3,0.7-0.3c0.2,0,0.5,0.1,0.8,0.3
			c0.3,0.2,0.5,0.4,0.7,0.7c0.2,0.3,0.3,0.5,0.3,0.8c0,0.2-0.1,0.5-0.3,0.7s-0.5,0.5-0.7,0.7C739.2,341,738.9,341.1,738.7,341.1
			L738.7,341.1z M743.8,341.1c-0.2,0-0.5-0.1-0.7-0.3c-0.3-0.2-0.5-0.5-0.7-0.7c-0.2-0.3-0.3-0.5-0.3-0.8c0-0.2,0.1-0.5,0.3-0.8
			c0.2-0.3,0.4-0.5,0.7-0.7c0.3-0.2,0.5-0.3,0.7-0.3c0.2,0,0.5,0.1,0.8,0.3c0.3,0.2,0.5,0.4,0.7,0.7c0.2,0.3,0.3,0.5,0.3,0.8
			c0,0.2-0.1,0.5-0.3,0.7s-0.5,0.5-0.7,0.7C744.3,341,744,341.1,743.8,341.1L743.8,341.1z"/>
		<path class="st0" d="M751.2,364.8v-25.2h2.1v22.8h5.2v2.4L751.2,364.8L751.2,364.8z"/>
		<path class="st0" d="M765.5,362.4h5.2v2.4h-13.8v-2.4h6.6V346h2.1V362.4z M761.6,371.5c-0.2,0-0.5-0.1-0.7-0.3
			c-0.3-0.2-0.5-0.5-0.7-0.7s-0.3-0.5-0.3-0.8c0-0.2,0.1-0.5,0.3-0.8c0.2-0.3,0.4-0.5,0.7-0.7c0.3-0.2,0.5-0.3,0.7-0.3
			c0.2,0,0.5,0.1,0.8,0.3c0.3,0.2,0.5,0.4,0.7,0.7c0.2,0.3,0.3,0.5,0.3,0.8c0,0.2-0.1,0.5-0.3,0.7s-0.5,0.5-0.7,0.7
			C762.1,371.5,761.9,371.6,761.6,371.5L761.6,371.5z M766.7,371.5c-0.2,0-0.5-0.1-0.7-0.3s-0.5-0.5-0.7-0.7s-0.3-0.5-0.3-0.8
			c0-0.2,0.1-0.5,0.3-0.8c0.2-0.3,0.4-0.5,0.7-0.7s0.5-0.3,0.7-0.3c0.2,0,0.5,0.1,0.8,0.3c0.3,0.2,0.5,0.4,0.7,0.7
			c0.2,0.3,0.3,0.5,0.3,0.8c0,0.2-0.1,0.5-0.3,0.7s-0.5,0.5-0.7,0.7C767.2,371.5,766.9,371.6,766.7,371.5L766.7,371.5z"/>
		<path class="st0" d="M786.3,354.9l1.9,1c-0.5,1.1-1.1,2.1-1.8,3.2s-1.5,2-2.5,2.8s-2.2,1.5-3.5,2c-1.4,0.5-3,0.8-4.8,0.8h-6.5
			v-2.4h7.6c1.2,0,2.3-0.2,3.3-0.7s1.9-1.1,2.7-1.8s1.5-1.5,2.1-2.4C785.5,356.6,785.9,355.7,786.3,354.9L786.3,354.9z M787.9,354.8
			h3.7v2.3h-3c-0.8,0-1.3-0.2-1.8-0.5c-0.4-0.4-0.8-0.9-1.1-1.7c-0.7-1.8-1.4-3.2-2.3-4.2s-2-1.7-3.3-2.1s-3-0.6-5-0.6
			c-0.4,0-0.8,0-1.2,0c-0.4,0-0.9,0-1.4,0.1l-0.4-2.3c0.7,0,1.3-0.1,1.9-0.1c0.6,0,1.2,0,1.7,0c2.3,0,4.2,0.3,5.7,0.9
			c1.5,0.6,2.8,1.6,3.9,2.9S787.1,352.6,787.9,354.8z"/>
	</g>
	<g>
		<path class="st0" d="M1099.4,121.6L919.5,301.4c-14,14-36.7,14-50.7,0l-48.7-48.7c-15.5-15.4-15.5-40.5,0-56L997.4,19.6
			c7.6-7.6,19.8-7.6,27.4,0l42.1,42.1L1064,65c0,0,3.1,10.9,11.9,19.2c10.8,10.2,18.3,11.2,18.3,11.2l3.5-2.9l1.7,1.7
			C1106.9,101.7,1106.9,114,1099.4,121.6L1099.4,121.6z"/>
		<path class="st1" d="M851.3,243.9L813.4,206c-8.1,15-5.8,34.1,6.9,46.7l39,39l9.7,9.7c14,14,36.7,14,50.7,0l179.9-179.9
			c7.6-7.6,7.6-19.8,0-27.4l-1.8-1.8l-3.1,3.3c0,0-8.4-1.5-18.6-11.8c-9.8-9.9-11.8-19-11.8-19l3-2.9l-6.8-6.9L871.4,243.9
			C865.8,249.5,856.8,249.5,851.3,243.9L851.3,243.9z"/>
		<path class="st2" d="M879.3,249.1c-8.5,8.5-8.5,22.2,0,30.6l0,0c8.5,8.5,22.2,8.5,30.6,0l184.4-184c0,0-9-2.1-18.7-11.7
			c-9.2-9.2-11.9-18.9-11.9-18.9L879.3,249.1L879.3,249.1z"/>
		<path class="st3" d="M919.5,301.4l179.9-179.9c2.7-2.7,4.4-6.1,5.2-9.6L913.3,302.2c-16.7,14-44.4-0.8-44.4-0.8
			C882.9,315.4,905.5,315.4,919.5,301.4L919.5,301.4z"/>
		<polygon class="st4" points="884.8,283.7 884.8,283.7 884.8,283.7 		"/>
		<path class="st4" d="M882.2,282.1c-0.2-0.1-0.3-0.2-0.5-0.4C881.8,281.9,882,282,882.2,282.1z"/>
		<path class="st2" d="M884.8,283.7c-0.9-0.5-1.8-1-2.6-1.6C883,282.7,883.9,283.2,884.8,283.7z"/>
		<path class="st2" d="M881.7,281.8c-0.8-0.6-1.6-1.3-2.4-2C880.1,280.5,880.9,281.2,881.7,281.8z"/>
		<path class="st5" d="M1075.9,84c-9.2-9.2-11.8-19.2-11.8-19.2L879.3,249.1c-8.5,8.5-8.5,22.2,0,30.6l0,0c0.7,0.7,1.5,1.4,2.4,2
			c0.2,0.1,0.3,0.2,0.5,0.4c0.8,0.6,1.7,1.1,2.6,1.6l0,0l195.6-195.6C1078.8,86.9,1077.4,85.6,1075.9,84L1075.9,84z"/>
		<path class="st6" d="M879.6,257.6c0.2,0.2,0.5,0.4,0.8,0.4s0.6-0.1,0.8-0.4l185.5-185.5c-0.4-0.8-0.8-1.6-1.1-2.2l-186,186
			C879.1,256.4,879.1,257.1,879.6,257.6L879.6,257.6z"/>
		<path class="st6" d="M877.5,268.1c0.2,0.2,0.5,0.4,0.8,0.4s0.6-0.1,0.8-0.4l190.9-190.8c-0.5-0.7-0.9-1.4-1.4-2L877.5,266.5
			C877,266.9,877,267.7,877.5,268.1L877.5,268.1z"/>
		<path class="st6" d="M888.4,266.4c0.2,0.2,0.5,0.4,0.8,0.4s0.6-0.1,0.8-0.4l184-184c-0.6-0.6-1.1-1.2-1.6-1.8L888.4,264.7
			C887.9,265.1,887.9,265.9,888.4,266.4L888.4,266.4z"/>
		<path class="st6" d="M885.9,277.6c0.2,0.2,0.5,0.4,0.8,0.4s0.6-0.1,0.8-0.4l190.8-191.1c-0.6-0.5-1.2-1.1-1.8-1.6l-190.8,191
			C885.4,276.4,885.4,277.1,885.9,277.6L885.9,277.6z"/>
		<path class="st6" d="M898,275.9c0.2,0.2,0.5,0.4,0.8,0.4s0.6-0.1,0.8-0.4l184.2-185.3c-0.7-0.4-1.3-0.9-2-1.4l-183.9,185
			C897.5,274.7,897.5,275.5,898,275.9L898,275.9z"/>
		<path class="st6" d="M902.1,278.4c-0.5,0.5-0.5,1.2,0,1.7c0.2,0.2,0.5,0.4,0.8,0.4s0.6-0.1,0.8-0.4l186-186
			c-0.7-0.3-1.4-0.7-2.3-1.1L902.1,278.4L902.1,278.4z"/>
	</g>
	<path class="st0" d="M991.6,113.3L883.5,221.4c-14.7,14.7-38.6,14.7-53.3,0L779,170.2c-16.3-16.3-16.3-42.6,0-58.9L884.3,6
		c8-8,20.9-8,28.8,0l44.3,44.3l-3.1,3.4c0,0,3.2,11.4,12.5,20.2c11.4,10.8,19.3,11.8,19.3,11.8l3.7-3.1l1.7,1.7
		C999.5,92.4,999.5,105.3,991.6,113.3L991.6,113.3z"/>
	<path class="st1" d="M811.6,160.9L771.7,121c-8.5,15.8-6.1,35.9,7.2,49.2l41,41l10.2,10.2c14.7,14.7,38.6,14.7,53.3,0l108.1-108.1
		c8-8,8-20.9,0-28.8l-1.9-1.9l-3.3,3.5c0,0-8.8-1.5-19.6-12.4c-10.3-10.4-12.4-20-12.4-20l3.2-3.1l-7.1-7.2L832.8,160.9
		C826.9,166.7,817.5,166.8,811.6,160.9L811.6,160.9z"/>
	<path class="st2" d="M841.1,166.4c-8.9,8.9-8.9,23.3,0,32.2l0,0c8.9,8.9,23.3,8.9,32.2,0l113-112.5c0,0-9.5-2.2-19.7-12.3
		c-9.7-9.7-12.5-19.9-12.5-19.9L841.1,166.4L841.1,166.4z"/>
	<path class="st5" d="M966.8,73.7c-9.7-9.7-12.4-20.2-12.4-20.2L841.1,166.4c-8.9,8.9-8.9,23.3,0,32.2l0,0c0.8,0.8,1.6,1.5,2.5,2.1
		c0.2,0.1,0.3,0.2,0.5,0.4c0.9,0.6,1.8,1.2,2.7,1.7l0,0L971.5,78.1C970,76.8,968.5,75.4,966.8,73.7L966.8,73.7z"/>
	<path class="st6" d="M841.4,175.3c0.2,0.2,0.6,0.4,0.9,0.4s0.6-0.1,0.9-0.4L957.3,61.2c-0.5-0.8-0.9-1.6-1.2-2.4L841.4,173.5
		C840.9,174,840.9,174.8,841.4,175.3L841.4,175.3z"/>
	<path class="st6" d="M839.2,186.4c0.2,0.2,0.6,0.4,0.9,0.4s0.6-0.1,0.9-0.4L960.7,66.7c-0.5-0.7-1-1.4-1.4-2.1l-120.1,120
		C838.7,185.1,838.7,185.9,839.2,186.4L839.2,186.4z"/>
	<path class="st6" d="M850.7,184.5c0.2,0.2,0.6,0.4,0.9,0.4s0.6-0.1,0.9-0.4L965,72c-0.6-0.6-1.1-1.3-1.7-1.9L850.7,182.7
		C850.2,183.2,850.2,184,850.7,184.5z"/>
	<path class="st6" d="M848.1,196.3c0.2,0.2,0.6,0.4,0.9,0.4s0.7-0.1,0.9-0.4L969.6,76.4c-0.6-0.5-1.2-1.1-1.9-1.7L848.1,194.6
		C847.6,195,847.6,195.8,848.1,196.3L848.1,196.3z"/>
	<path class="st6" d="M860.7,194.6c0.2,0.2,0.6,0.4,0.9,0.4s0.7-0.1,0.9-0.4L975.2,80.7c-0.7-0.4-1.4-0.9-2.1-1.5L860.7,192.8
		C860.2,193.3,860.2,194.1,860.7,194.6L860.7,194.6z"/>
	<path class="st6" d="M865.1,197.2c-0.5,0.5-0.5,1.3,0,1.8c0.2,0.2,0.6,0.4,0.9,0.4s0.6-0.1,0.9-0.4L981.5,84.3
		c-0.7-0.3-1.5-0.7-2.4-1.2L865.1,197.2L865.1,197.2z"/>
	<path class="st7" d="M311.9,82.5c-1.4,4.8-2.1,7.2-2.1,7.2c2,0.5,4.2,0.3,6.2-0.4c-1.5-4.6-2.2-7-2.2-7
		C313.1,80.7,312.5,80.7,311.9,82.5 M308.7,93.8c-6.2,22.1-9.3,33.1-9.3,33.1c3.5-1.7,7.5,0.1,9.4,4.3c2.9-3.4,7.1-3.6,10.2-0.5
		c1.8-4.3,5.5-6.6,9.2-5.4c-7.2-21.3-10.8-31.9-10.8-31.9C314.6,94.8,311.6,95,308.7,93.8L308.7,93.8z M299.4,201.4v2.9v2.8v2.9v2.9
		v3v3.1v3.1v3.2v3.2v3.3v3.4v3.4v3.5v3.6v3.6v3.7v3.7v3.8v3.9v3.9l0,22.7l28-25.5l0-49.9l0,0l0-39.7v-14.6l0-4.1V154v-2.1v-3.2v-2.4
		v-4.1V142v-2.9v-8.9c-2-0.6-4,0.6-5,2.9l-1.9,4.6l0,34.9v1.4l0.1,86.9l-14.5,13.1l-0.1-69v-1.4l-0.1-68.6l-0.5-1
		c-1-2.2-3-3.1-4.9-2.2l-1.5,0.7v9.5v0.3v2.8v0v1.6v1.9v3.1v1.2v2v2v4.1v0.8v0.2L299.4,201.4L299.4,201.4z M310.3,136.2l-0.2,112.2
		l6.8-6.1l0-107.4l-0.1-0.1c-1.6-1.6-3.9-1.5-5.4,0.3L310.3,136.2L310.3,136.2z"/>
	<g>
		<path class="st0" d="M13,326.1h40.2c11.6,0,19.5-0.7,23.7-2.1c4.2-1.4,6.3-4.2,6.3-8.5V195.7h10.4v104.4c0,7.7-0.7,14-2,18.9
			s-3.8,8.7-7.4,11.4c-3.6,2.7-8.7,4.6-15.4,5.7s-15.4,1.6-26.2,1.6c-9.3,0-16.8-0.6-22.5-1.8c-5.7-1.2-10-3.4-12.9-6.5
			s-4.9-7.5-5.8-13.1S0,303.5,0,294.7c0-5.7,0.2-11.7,0.7-18s1.1-12.3,2-18c0.9-5.7,1.8-10.5,2.9-14.4l9.4,1.8
			c-1.6,8.4-2.8,16.5-3.5,24.3c-0.7,7.8-1.1,15-1.1,21.7c0,7.1,0.2,13.2,0.6,18.5C11.4,315.9,12.1,321.1,13,326.1L13,326.1z
			 M48,171.3c-1.1,0.1-2.3-0.3-3.7-1.3s-2.6-2.2-3.6-3.7s-1.5-2.7-1.5-3.8c0-1.2,0.5-2.5,1.5-3.8s2.2-2.5,3.6-3.5
			c1.4-1,2.6-1.6,3.7-1.7c1.2,0.1,2.5,0.7,3.9,1.7s2.6,2.2,3.6,3.5s1.5,2.6,1.5,3.8c0,1.1-0.5,2.3-1.6,3.7s-2.3,2.6-3.7,3.7
			C50.3,171,49.1,171.4,48,171.3L48,171.3z M93.6,277.9h26.2v11.8H93.6C93.6,289.7,93.6,277.9,93.6,277.9z"/>
		<path class="st0" d="M186.6,194.1c8.9,0,15.9,0.7,21,2.1c5.1,1.4,8.7,3.7,10.8,7s3.2,7.8,3.2,13.7v72.8H111.8v-11.8h99.4v-69.4
			c-3.7-1.1-7.5-1.8-11.4-2.2c-3.9-0.4-8.4-0.6-13.6-0.6s-10.6,0.4-17,1.2s-12.3,2-17.6,3.6l-3.8-9c2.9-1.7,6.6-3.1,11-4.2
			c4.4-1.1,9.1-1.9,14-2.4C177.7,194.4,182.3,194.1,186.6,194.1L186.6,194.1z M146.6,284.5c-3.5-4.1-5.8-9.8-7-16.9
			s-1.8-14.4-1.8-21.7c0-8,0.9-15.8,2.8-23.3c1.9-7.5,4.3-14.6,7.2-21.1l8.4,3.8c-2.3,6.9-4.2,13.7-5.7,20.4s-2.3,13.4-2.3,20.2
			c0,4.5,0.3,9.3,0.8,14.3c0.5,5,1.5,9.8,2.9,14.3s3.4,8.5,5.9,12L146.6,284.5L146.6,284.5z M221.6,277.9h26.2v11.8h-26.2V277.9z"/>
		<path class="st0" d="M239.8,289.7v-11.8h32.8v-82.2H283v94L239.8,289.7L239.8,289.7z M251.8,318.5c-1.1,0.1-2.3-0.3-3.7-1.3
			s-2.6-2.2-3.6-3.7s-1.5-2.7-1.5-3.8c0-1.2,0.5-2.5,1.5-3.8s2.2-2.5,3.6-3.5c1.4-1,2.6-1.6,3.7-1.7c1.2,0.1,2.5,0.7,3.9,1.7
			c1.4,1,2.6,2.2,3.6,3.5s1.5,2.6,1.5,3.8c0,1.1-0.5,2.3-1.6,3.7c-1.1,1.4-2.3,2.6-3.7,3.7C254.1,318.2,252.9,318.7,251.8,318.5
			L251.8,318.5z M277.2,318.5c-1.1,0.1-2.3-0.3-3.7-1.3c-1.4-1-2.6-2.2-3.6-3.7s-1.5-2.7-1.5-3.8c0-1.2,0.5-2.5,1.5-3.8
			s2.2-2.5,3.6-3.5s2.6-1.6,3.7-1.7c1.2,0.1,2.5,0.7,3.9,1.7s2.6,2.2,3.6,3.5s1.5,2.6,1.5,3.8c0,1.1-0.5,2.3-1.6,3.7
			c-1.1,1.4-2.3,2.6-3.7,3.7C279.5,318.2,278.3,318.7,277.2,318.5L277.2,318.5z"/>
	</g>
</g>
</svg>
