<?xml version="1.0" encoding="UTF-8"?>
<svg id="Layer_2" data-name="Layer 2" xmlns="http://www.w3.org/2000/svg" viewBox="0 0 1366.18 374.38">
  <g id="Layer_1-2" data-name="Layer 1">
    <g>
      <path d="M5.22,348.93c-.96-2.64-1.86-5.97-2.7-9.99-.84-4.02-1.47-8.28-1.89-12.78-.42-4.5-.63-8.73-.63-12.69,0-8.88,.54-15.9,1.62-21.06,1.08-5.16,2.97-8.82,5.67-10.98,2.7-2.16,6.33-3.24,10.89-3.24h62.82v-62.46c-5.88-1.68-13.38-2.52-22.5-2.52-5.16,0-10.59,.39-16.29,1.17-5.7,.78-10.65,1.83-14.85,3.15l-3.42-8.1c3.48-1.92,8.49-3.51,15.03-4.77,6.54-1.26,13.17-1.89,19.89-1.89,8.04,0,14.34,.63,18.9,1.89,4.56,1.26,7.8,3.36,9.72,6.3,1.92,2.94,2.88,7.05,2.88,12.33v65.52H12.42c-1.08,3.72-1.86,7.62-2.34,11.7-.48,4.08-.72,8.94-.72,14.58,0,4.08,.39,8.67,1.17,13.77,.78,5.1,2.01,11.13,3.69,18.09l-9,1.98Zm17.64-64.8c-3.12-3.72-5.22-8.79-6.3-15.21-1.08-6.42-1.62-12.93-1.62-19.53,0-7.2,.84-14.19,2.52-20.97,1.68-6.78,3.84-13.11,6.48-18.99l7.56,3.42c-2.04,6.24-3.75,12.36-5.13,18.36-1.38,6-2.07,12.06-2.07,18.18,0,4.08,.24,8.37,.72,12.87,.48,4.5,1.35,8.79,2.61,12.87,1.26,4.08,3.03,7.68,5.31,10.8l-10.08-1.8Zm67.5-5.94h23.58v10.62h-23.58v-10.62Z" style="fill: #fff;"/>
      <path d="M145.62,278.19h23.4v10.62h-62.28v-10.62h29.52v-102.78h9.36v102.78Z" style="fill: #fff;"/>
      <path d="M161.82,278.19h22.14v10.62h-22.14v-10.62Zm25.2-64.98c0,13.44,2.76,25.02,8.28,34.74,5.52,9.72,13.26,17.19,23.22,22.41,9.96,5.22,21.6,7.83,34.92,7.83v10.62c-10.68,0-20.61-1.74-29.79-5.22-9.18-3.48-17.22-8.37-24.12-14.67-6.9-6.3-12.27-13.65-16.11-22.05-3.84-8.4-5.76-17.52-5.76-27.36,0-4.68,1.08-8.22,3.24-10.62,2.16-2.4,6.21-4.02,12.15-4.86,5.94-.84,14.49-1.26,25.65-1.26s19.68,.45,25.56,1.35c5.88,.9,9.9,2.55,12.06,4.95,2.16,2.4,3.24,5.88,3.24,10.44,0,9.72-1.92,18.78-5.76,27.18-3.84,8.4-9.21,15.75-16.11,22.05-6.9,6.3-14.91,11.22-24.03,14.76-9.12,3.54-19.02,5.31-29.7,5.31v-10.62c13.32,0,24.93-2.61,34.83-7.83,9.9-5.22,17.61-12.69,23.13-22.41,5.52-9.72,8.28-21.3,8.28-34.74h-63.18Zm66.42,64.98h21.96v10.62h-21.96v-10.62Z" style="fill: #fff;"/>
      <path d="M307.08,288.81h-38.88v-10.62h29.52v-102.78h9.36v113.4Z" style="fill: #fff;"/>
      <path d="M346.86,288.81v-113.4h9.36v113.4h-9.36Z" style="fill: #fff;"/>
      <path d="M399.5,333.81l-4.5-7.92c4.56-2.4,8.25-5.16,11.07-8.28,2.82-3.12,4.86-6.87,6.12-11.25,1.26-4.38,1.89-9.63,1.89-15.75v-86.4h9.36v86.4c0,7.08-.81,13.32-2.43,18.72-1.62,5.4-4.2,10.08-7.74,14.04-3.54,3.96-8.13,7.44-13.77,10.44Z" style="fill: #fff;"/>
      <path d="M496.16,288.81v-10.62h66.78c-4.08-14.4-7.74-26.01-10.98-34.83-3.24-8.82-6.48-15.6-9.72-20.34-3.24-4.74-6.9-7.95-10.98-9.63-4.08-1.68-9.06-2.52-14.94-2.52-1.56,0-3.36,.15-5.4,.45-2.04,.3-3.9,.69-5.58,1.17l-2.7-10.26c2.76-.6,5.37-1.05,7.83-1.35,2.46-.3,4.41-.45,5.85-.45,6.24,0,11.55,.42,15.93,1.26,4.38,.84,8.19,2.67,11.43,5.49,3.24,2.82,6.3,7.14,9.18,12.96,2.88,5.82,6,13.62,9.36,23.4,3.36,9.78,7.32,22.11,11.88,36.99v8.28h-77.94Z" style="fill: #fff;"/>
      <path d="M704.56,204.21v84.6h-42.3c-7.32,0-13.26-.51-17.82-1.53-4.56-1.02-7.98-3-10.26-5.94-2.28-2.94-3.84-7.2-4.68-12.78-.84-5.58-1.26-12.93-1.26-22.05s.42-16.47,1.26-22.05c.84-5.58,2.4-9.84,4.68-12.78,2.28-2.94,5.7-4.92,10.26-5.94,4.56-1.02,10.5-1.53,17.82-1.53h42.3Zm-9.36,10.44h-42.48c-5.16,0-8.88,.9-11.16,2.7-2.28,1.8-3.42,4.8-3.42,9v40.32c0,4.2,1.14,7.17,3.42,8.91,2.28,1.74,6,2.61,11.16,2.61h42.48v-63.54Zm-41.76-32.4c-.96,.12-2.07-.27-3.33-1.17s-2.34-2.01-3.24-3.33c-.9-1.32-1.35-2.46-1.35-3.42,0-1.08,.45-2.22,1.35-3.42,.9-1.2,1.98-2.25,3.24-3.15,1.26-.9,2.37-1.41,3.33-1.53,1.08,.12,2.25,.63,3.51,1.53,1.26,.9,2.34,1.95,3.24,3.15,.9,1.2,1.35,2.34,1.35,3.42,0,.96-.48,2.07-1.44,3.33-.96,1.26-2.07,2.37-3.33,3.33-1.26,.96-2.37,1.38-3.33,1.26Zm22.86,0c-.96,.12-2.07-.27-3.33-1.17-1.26-.9-2.34-2.01-3.24-3.33-.9-1.32-1.35-2.46-1.35-3.42,0-1.08,.45-2.22,1.35-3.42,.9-1.2,1.98-2.25,3.24-3.15,1.26-.9,2.37-1.41,3.33-1.53,1.08,.12,2.25,.63,3.51,1.53,1.26,.9,2.34,1.95,3.24,3.15,.9,1.2,1.35,2.34,1.35,3.42,0,.96-.48,2.07-1.44,3.33-.96,1.26-2.07,2.37-3.33,3.33-1.26,.96-2.37,1.38-3.33,1.26Zm27.54,95.94h20.88v10.62h-20.88v-10.62Z" style="fill: #fff;"/>
      <path d="M756.4,278.19h23.4v10.62h-62.28v-10.62h29.52v-73.98h9.36v73.98Zm-4.68,41.04c-.96,.12-2.07-.27-3.33-1.17-1.26-.9-2.34-2.01-3.24-3.33-.9-1.32-1.35-2.46-1.35-3.42,0-1.08,.45-2.22,1.35-3.42,.9-1.2,1.98-2.25,3.24-3.15,1.26-.9,2.37-1.41,3.33-1.53,1.08,.12,2.25,.63,3.51,1.53,1.26,.9,2.34,1.95,3.24,3.15,.9,1.2,1.35,2.34,1.35,3.42,0,.96-.48,2.07-1.44,3.33-.96,1.26-2.07,2.37-3.33,3.33-1.26,.96-2.37,1.38-3.33,1.26Z" style="fill: #fff;"/>
      <path d="M811.48,278.19h23.4v10.62h-62.28v-10.62h29.52v-73.98h9.36v73.98Zm-16.2-95.94c-.96,.12-2.07-.27-3.33-1.17s-2.34-2.01-3.24-3.33c-.9-1.32-1.35-2.46-1.35-3.42,0-1.08,.45-2.22,1.35-3.42,.9-1.2,1.98-2.25,3.24-3.15,1.26-.9,2.37-1.41,3.33-1.53,1.08,.12,2.25,.63,3.51,1.53,1.26,.9,2.34,1.95,3.24,3.15,.9,1.2,1.35,2.34,1.35,3.42,0,.96-.48,2.07-1.44,3.33-.96,1.26-2.07,2.37-3.33,3.33-1.26,.96-2.37,1.38-3.33,1.26Zm22.86,0c-.96,.12-2.07-.27-3.33-1.17-1.26-.9-2.34-2.01-3.24-3.33-.9-1.32-1.35-2.46-1.35-3.42,0-1.08,.45-2.22,1.35-3.42,.9-1.2,1.98-2.25,3.24-3.15,1.26-.9,2.37-1.41,3.33-1.53,1.08,.12,2.25,.63,3.51,1.53,1.26,.9,2.34,1.95,3.24,3.15,.9,1.2,1.35,2.34,1.35,3.42,0,.96-.48,2.07-1.44,3.33-.96,1.26-2.07,2.37-3.33,3.33-1.26,.96-2.37,1.38-3.33,1.26Z" style="fill: #fff;"/>
      <path d="M827.68,288.81v-10.62h99.18v-47.88h-64.26c-5.04,0-8.85-1.05-11.43-3.15-2.58-2.1-3.87-5.19-3.87-9.27,0-3.72,.72-7.98,2.16-12.78,1.44-4.8,3.36-9.75,5.76-14.85,2.4-5.1,5.19-10.02,8.37-14.76,3.18-4.74,6.45-8.79,9.81-12.15l8.46,4.32c-3.72,4.2-7.08,8.43-10.08,12.69-3,4.26-5.61,8.58-7.83,12.96-2.22,4.38-4.05,8.79-5.49,13.23-1.44,4.44-2.52,8.88-3.24,13.32h66.78c3.72,0,6.6,.42,8.64,1.26,2.04,.84,3.48,2.28,4.32,4.32,.84,2.04,1.26,4.86,1.26,8.46v54.9h-108.54Zm108.54-10.62h23.4v10.62h-23.4v-10.62Z" style="fill: #fff;"/>
      <path d="M1019.74,202.77c8.04,0,14.34,.63,18.9,1.89,4.56,1.26,7.8,3.36,9.72,6.3,1.92,2.94,2.88,7.05,2.88,12.33v65.52h-98.82v-10.62h89.46v-62.46c-3.36-.96-6.78-1.62-10.26-1.98-3.48-.36-7.56-.54-12.24-.54s-9.54,.36-15.3,1.08c-5.76,.72-11.04,1.8-15.84,3.24l-3.42-8.1c2.64-1.56,5.94-2.82,9.9-3.78,3.96-.96,8.16-1.68,12.6-2.16,4.44-.48,8.58-.72,12.42-.72Zm-36,81.36c-3.12-3.72-5.22-8.79-6.3-15.21-1.08-6.42-1.62-12.93-1.62-19.53,0-7.2,.84-14.19,2.52-20.97,1.68-6.78,3.84-13.11,6.48-18.99l7.56,3.42c-2.04,6.24-3.75,12.36-5.13,18.36-1.38,6-2.07,12.06-2.07,18.18,0,4.08,.24,8.37,.72,12.87,.48,4.5,1.35,8.79,2.61,12.87,1.26,4.08,3.03,7.68,5.31,10.8l-10.08-1.8Z" style="fill: #fff;"/>
    </g>
    <g>
      <path d="M732.96,372.06h8.04c2.32,0,3.9-.14,4.74-.42,.84-.28,1.26-.85,1.26-1.7v-30.24h2.08v27.16c0,1.55-.13,2.81-.4,3.78-.27,.97-.76,1.73-1.48,2.28-.72,.55-1.75,.93-3.08,1.14-1.33,.21-3.08,.32-5.24,.32-1.87,0-3.37-.12-4.5-.36-1.13-.24-1.99-.67-2.58-1.3-.59-.63-.97-1.5-1.16-2.62-.19-1.12-.28-2.56-.28-4.32,0-1.15,.05-2.35,.14-3.6,.09-1.25,.23-2.45,.4-3.6,.17-1.15,.37-2.11,.58-2.88l1.88,.36c-.32,1.68-.55,3.3-.7,4.86s-.22,3.01-.22,4.34c0,1.41,.04,2.65,.12,3.7,.08,1.05,.21,2.09,.4,3.1Zm16.12-9.64h5.24v2.36h-5.24v-2.36Z" style="fill: #fff;"/>
      <path d="M752.72,364.78v-2.36h25.08l-2.28-8.76c-.56-2.08-1.39-3.67-2.48-4.78-1.09-1.11-2.47-1.87-4.12-2.28-1.65-.41-3.61-.62-5.88-.62l.16-2.24c2.59,0,4.82,.24,6.7,.72s3.44,1.37,4.68,2.68c1.24,1.31,2.18,3.23,2.82,5.76l2.64,10.12v1.76h-27.32Zm4.84-1.68c0-2.16,.05-3.88,.16-5.16,.11-1.28,.37-2.23,.78-2.86,.41-.63,1.05-1.03,1.92-1.22,.87-.19,2.06-.28,3.58-.28,1.65,0,2.95,.09,3.9,.28,.95,.19,1.64,.59,2.08,1.22,.44,.63,.72,1.58,.84,2.86,.12,1.28,.18,3,.18,5.16h-13.44Zm11.6-7.84h-7.48c-.88,0-1.48,.12-1.8,.36-.32,.24-.48,.69-.48,1.36v6.12h9.76v-7.84Zm9.96,7.24h3.72v2.32h-3.72v-2.32Z" style="fill: #fff;"/>
      <path d="M789.88,364.78h-8.64v-2.36h6.56v-12.84h2.08v15.2Zm4.32,0h-4.32v-2.36h6.12c1.17,0,2-.14,2.48-.42,.48-.28,.72-.85,.72-1.7v-10.72h2.08v8.6c0,1.36-.09,2.47-.26,3.32s-.51,1.52-1,2-1.21,.81-2.14,1c-.93,.19-2.16,.28-3.68,.28Zm12.48,0c-1.6,0-2.89-.09-3.88-.28-.99-.19-1.74-.52-2.26-1-.52-.48-.87-1.15-1.06-2s-.28-1.96-.28-3.32v-8.6h2.08v10.72c0,.85,.23,1.42,.7,1.7,.47,.28,1.29,.42,2.46,.42h5.64c.19-1.12,.32-2.3,.4-3.54,.08-1.24,.12-2.67,.12-4.3,0-1.17-.09-2.45-.26-3.84-.17-1.39-.42-2.81-.74-4.28l2.04-.36c.16,.64,.32,1.47,.48,2.5,.16,1.03,.29,2.07,.4,3.14,.11,1.07,.16,2,.16,2.8,0,2.59-.13,4.63-.38,6.12-.25,1.49-.8,2.55-1.64,3.18-.84,.63-2.17,.94-3.98,.94Z" style="fill: #fff;"/>
      <path d="M823.04,338.7l3.56-.96v1.48l-9,2.4v-1.48l1.88-.52c-.19-.35-.33-.79-.42-1.32-.09-.53-.14-1.2-.14-2,0-1.52,.28-2.68,.84-3.48,.56-.8,1.35-1.35,2.38-1.64,1.03-.29,2.22-.41,3.58-.36v1.88c-.77-.03-1.6,.05-2.48,.22-.88,.17-1.59,.43-2.12,.78l-.08,4.16c0,.51,.15,.82,.44,.94,.29,.12,.81,.09,1.56-.1Zm-1.96,26.08v-18.8h2.08v18.8h-2.08Z" style="fill: #fff;"/>
      <path d="M846.4,364.78c-1.28,0-2.29-.25-3.02-.76-.73-.51-1.25-1.34-1.56-2.5-.31-1.16-.46-2.74-.46-4.74,0-1.15,.1-2.37,.3-3.68,.2-1.31,.46-2.35,.78-3.12l1.92,.36c-.29,1.15-.52,2.25-.68,3.32-.16,1.07-.24,2.04-.24,2.92,0,1.23,.05,2.3,.14,3.22,.09,.92,.27,1.79,.54,2.62h22.48v-16.44h2.08v18.8h-22.28Zm6.6-19.68c-.21,.03-.46-.06-.74-.26-.28-.2-.52-.45-.72-.74-.2-.29-.3-.55-.3-.76,0-.24,.1-.49,.3-.76,.2-.27,.44-.5,.72-.7,.28-.2,.53-.31,.74-.34,.24,.03,.5,.14,.78,.34,.28,.2,.52,.43,.72,.7,.2,.27,.3,.52,.3,.76,0,.21-.11,.46-.32,.74-.21,.28-.46,.53-.74,.74-.28,.21-.53,.31-.74,.28Zm5.08,0c-.21,.03-.46-.06-.74-.26-.28-.2-.52-.45-.72-.74-.2-.29-.3-.55-.3-.76,0-.24,.1-.49,.3-.76,.2-.27,.44-.5,.72-.7,.28-.2,.53-.31,.74-.34,.24,.03,.5,.14,.78,.34,.28,.2,.52,.43,.72,.7,.2,.27,.3,.52,.3,.76,0,.21-.11,.46-.32,.74-.21,.28-.46,.53-.74,.74-.28,.21-.53,.31-.74,.28Zm10.32,17.32h5.48v2.36h-5.48v-2.36Z" style="fill: #fff;"/>
      <path d="M889.48,354.94l1.92,1.04c-.48,1.07-1.05,2.13-1.7,3.18-.65,1.05-1.45,2-2.4,2.84-.95,.84-2.06,1.51-3.34,2.02-1.28,.51-2.77,.76-4.48,.76h-7.2v-2.36h8.8c1.07,0,2.04-.24,2.92-.72s1.67-1.09,2.38-1.84c.71-.75,1.32-1.55,1.84-2.42,.52-.87,.94-1.7,1.26-2.5Zm4.52,7.48h2.08v2.36h-1.36c-.77,0-1.37-.18-1.8-.54s-.79-.93-1.08-1.7l-2.92-7.64c-.75-1.76-1.57-3.14-2.46-4.14s-1.99-1.71-3.28-2.14c-1.29-.43-2.94-.64-4.94-.64-.4,0-.81,0-1.24,.02-.43,.01-.89,.05-1.4,.1l-.36-2.28c.67-.05,1.3-.09,1.9-.12,.6-.03,1.17-.04,1.7-.04,2.19,0,4.03,.27,5.52,.82,1.49,.55,2.75,1.43,3.78,2.66,1.03,1.23,1.91,2.84,2.66,4.84l3.2,8.44Z" style="fill: #fff;"/>
      <path d="M903.12,362.42h5.2v2.36h-13.84v-2.36h6.56v-16.44h2.08v16.44Zm-1.04,9.12c-.21,.03-.46-.06-.74-.26-.28-.2-.52-.45-.72-.74s-.3-.55-.3-.76c0-.24,.1-.49,.3-.76,.2-.27,.44-.5,.72-.7,.28-.2,.53-.31,.74-.34,.24,.03,.5,.14,.78,.34s.52,.43,.72,.7c.2,.27,.3,.52,.3,.76,0,.21-.11,.46-.32,.74-.21,.28-.46,.53-.74,.74-.28,.21-.53,.31-.74,.28Z" style="fill: #fff;"/>
      <path d="M935.04,362.42v2.36h-28.32v-2.36h28.32Zm-2.08,2.36v-16.44c-.93-.29-2.37-.44-4.32-.44-4.53,0-7.88,1.28-10.04,3.84s-3.24,6.51-3.24,11.84h-2.08v-17.6h2.08v8.16c.64-1.87,1.61-3.43,2.9-4.7,1.29-1.27,2.9-2.23,4.82-2.88,1.92-.65,4.13-.98,6.64-.98,1.31,0,2.35,.12,3.12,.36,.77,.24,1.33,.63,1.68,1.18,.35,.55,.52,1.3,.52,2.26v15.4h-2.08Z" style="fill: #fff;"/>
      <path d="M945.56,338.7l3.56-.96v1.48l-9,2.4v-1.48l1.88-.52c-.19-.35-.33-.79-.42-1.32-.09-.53-.14-1.2-.14-2,0-1.52,.28-2.68,.84-3.48,.56-.8,1.35-1.35,2.38-1.64,1.03-.29,2.22-.41,3.58-.36v1.88c-.77-.03-1.6,.05-2.48,.22-.88,.17-1.59,.43-2.12,.78l-.08,4.16c0,.51,.15,.82,.44,.94,.29,.12,.81,.09,1.56-.1Zm-1.96,26.08v-18.8h2.08v18.8h-2.08Z" style="fill: #fff;"/>
      <path d="M966.64,362.42h22.48v-22.84h2.08v25.2h-22.28c-1.28,0-2.29-.25-3.02-.76-.73-.51-1.25-1.34-1.56-2.5-.31-1.16-.46-2.74-.46-4.74,0-1.15,.1-2.37,.3-3.68,.2-1.31,.46-2.35,.78-3.12l1.92,.36c-.29,1.15-.52,2.25-.68,3.32-.16,1.07-.24,2.04-.24,2.92,0,1.23,.05,2.3,.14,3.22s.27,1.79,.54,2.62Zm12-15.72l3.56-.96v1.48l-9,2.4v-1.48l1.88-.52c-.19-.35-.33-.79-.42-1.32-.09-.53-.14-1.2-.14-2,0-1.52,.29-2.68,.86-3.48,.57-.8,1.37-1.35,2.38-1.64,1.01-.29,2.2-.41,3.56-.36v1.88c-.77-.03-1.6,.05-2.48,.22-.88,.17-1.59,.43-2.12,.78l-.08,4.16c0,.51,.15,.82,.44,.94,.29,.12,.81,.09,1.56-.1Zm12.56,15.72h5.2v2.36h-5.2v-2.36Z" style="fill: #fff;"/>
      <path d="M994.8,364.78v-2.36h6.56v-16.44h2.08v18.8h-8.64Zm5.04-23.68c-.21,.03-.46-.06-.74-.26-.28-.2-.52-.45-.72-.74-.2-.29-.3-.55-.3-.76,0-.24,.1-.49,.3-.76,.2-.27,.44-.5,.72-.7,.28-.2,.53-.31,.74-.34,.24,.03,.5,.14,.78,.34,.28,.2,.52,.43,.72,.7,.2,.27,.3,.52,.3,.76,0,.21-.11,.46-.32,.74-.21,.28-.46,.53-.74,.74-.28,.21-.53,.31-.74,.28Zm5.08,0c-.21,.03-.46-.06-.74-.26-.28-.2-.52-.45-.72-.74-.2-.29-.3-.55-.3-.76,0-.24,.1-.49,.3-.76,.2-.27,.44-.5,.72-.7,.28-.2,.53-.31,.74-.34,.24,.03,.5,.14,.78,.34,.28,.2,.52,.43,.72,.7,.2,.27,.3,.52,.3,.76,0,.21-.11,.46-.32,.74-.21,.28-.46,.53-.74,.74-.28,.21-.53,.31-.74,.28Z" style="fill: #fff;"/>
      <path d="M1012.28,364.78v-25.2h2.08v22.84h5.2v2.36h-7.28Z" style="fill: #fff;"/>
      <path d="M1026.6,362.42h5.2v2.36h-13.84v-2.36h6.56v-16.44h2.08v16.44Zm-3.84,9.12c-.21,.03-.46-.06-.74-.26-.28-.2-.52-.45-.72-.74s-.3-.55-.3-.76c0-.24,.1-.49,.3-.76,.2-.27,.44-.5,.72-.7,.28-.2,.53-.31,.74-.34,.24,.03,.5,.14,.78,.34,.28,.2,.52,.43,.72,.7,.2,.27,.3,.52,.3,.76,0,.21-.11,.46-.32,.74-.21,.28-.46,.53-.74,.74-.28,.21-.53,.31-.74,.28Zm5.08,0c-.21,.03-.46-.06-.74-.26s-.52-.45-.72-.74-.3-.55-.3-.76c0-.24,.1-.49,.3-.76,.2-.27,.44-.5,.72-.7s.53-.31,.74-.34c.24,.03,.5,.14,.78,.34,.28,.2,.52,.43,.72,.7,.2,.27,.3,.52,.3,.76,0,.21-.11,.46-.32,.74-.21,.28-.46,.53-.74,.74-.28,.21-.53,.31-.74,.28Z" style="fill: #fff;"/>
      <path d="M1047.4,354.94l1.92,1.04c-.48,1.07-1.07,2.13-1.78,3.18-.71,1.05-1.55,2-2.54,2.84-.99,.84-2.16,1.51-3.52,2.02-1.36,.51-2.95,.76-4.76,.76h-6.52v-2.36h7.6c1.2,0,2.31-.24,3.34-.72s1.94-1.09,2.74-1.84c.8-.75,1.5-1.55,2.1-2.42,.6-.87,1.07-1.7,1.42-2.5Zm1.6-.12h3.68v2.32h-3c-.75,0-1.34-.18-1.78-.54-.44-.36-.79-.93-1.06-1.7-.67-1.81-1.44-3.22-2.32-4.22-.88-1-1.99-1.7-3.32-2.1-1.33-.4-3.01-.6-5.04-.6-.4,0-.81,0-1.24,.02-.43,.01-.89,.05-1.4,.1l-.36-2.28c.67-.05,1.3-.09,1.9-.12,.6-.03,1.17-.04,1.7-.04,2.27,0,4.17,.31,5.7,.92,1.53,.61,2.82,1.59,3.86,2.92s1.93,3.11,2.68,5.32Z" style="fill: #fff;"/>
    </g>
    <g>
      <path d="M1360.51,121.57l-179.86,179.86c-13.99,13.99-36.66,13.99-50.65,0l-48.66-48.66c-15.45-15.45-15.45-40.51,0-55.96L1258.54,19.6c7.56-7.56,19.82-7.56,27.38,0l42.1,42.1-2.93,3.26s3.09,10.86,11.93,19.24c10.8,10.24,18.34,11.25,18.34,11.25l3.49-2.93,1.65,1.65c7.56,7.56,7.56,19.82,0,27.38Z" style="fill: #999;"/>
      <path d="M1112.4,243.94l-37.91-37.91c-8.07,14.99-5.8,34.08,6.86,46.74l38.96,38.96,9.7,9.7c13.99,13.99,36.66,13.99,50.65,0l179.86-179.86c7.56-7.56,7.56-19.82,0-27.38l-1.83-1.79-3.12,3.29s-8.4-1.46-18.64-11.81c-9.79-9.9-11.81-19.02-11.81-19.02l3.04-2.93-6.78-6.89-188.89,188.89c-5.55,5.55-14.53,5.56-20.08,.01Z" style="fill: #636568;"/>
      <path d="M1140.44,249.12c-8.46,8.46-8.46,22.18,0,30.64h0c8.46,8.46,22.18,8.46,30.64,0l184.44-184.04s-9.04-2.06-18.72-11.74c-9.23-9.23-11.93-18.9-11.93-18.9l-184.44,184.04Z" style="fill: #fcf2dd;"/>
      <path d="M1180.65,301.43l179.86-179.86c2.73-2.73,4.45-6.07,5.21-9.57l-191.3,190.19c-16.65,13.95-44.42-.76-44.42-.76,13.99,13.99,36.66,13.99,50.65,0Z" style="fill: #424a9f;"/>
      <polygon points="1145.87 283.71 1145.87 283.71 1145.87 283.71 1145.87 283.71" style="fill: #dbceb1;"/>
      <path d="M1143.27,282.12c-.16-.11-.32-.23-.47-.35,.16,.12,.31,.23,.47,.35Z" style="fill: #dbceb1;"/>
      <path d="M1145.87,283.71c-.9-.46-1.76-1-2.6-1.6,.84,.59,1.7,1.13,2.6,1.6Z" style="fill: #fcf2dd;"/>
      <path d="M1142.8,281.77c-.82-.61-1.61-1.27-2.36-2.01,.74,.74,1.54,1.4,2.36,2.01Z" style="fill: #fcf2dd;"/>
      <path d="M1336.97,83.99c-9.23-9.23-11.81-19.19-11.81-19.19l-184.72,184.32c-8.46,8.46-8.46,22.18,0,30.64h0c.74,.74,1.54,1.4,2.36,2.01,.16,.12,.31,.23,.47,.35,.84,.59,1.7,1.14,2.6,1.6h0l195.59-195.59c-1.51-1.2-2.9-2.56-4.48-4.14Z" style="fill: #cabd9b; opacity: .55;"/>
      <path d="M1140.72,257.57c.23,.23,.54,.35,.85,.35s.61-.12,.85-.35l185.5-185.5c-.43-.79-.82-1.55-1.14-2.24l-186.05,186.05c-.47,.47-.47,1.22,0,1.69Z" style="fill: #b2a382; opacity: .49;"/>
      <path d="M1138.58,268.15c.23,.23,.54,.35,.85,.35s.61-.12,.85-.35l190.92-190.82c-.49-.69-.94-1.36-1.36-2.02l-191.25,191.15c-.47,.47-.47,1.22,0,1.69Z" style="fill: #b2a382; opacity: .49;"/>
      <path d="M1149.49,266.35c.23,.23,.54,.35,.85,.35s.61-.12,.85-.35l184.03-184.03c-.55-.6-1.08-1.21-1.58-1.8l-184.14,184.14c-.47,.47-.47,1.22,0,1.69Z" style="fill: #b2a382; opacity: .49;"/>
      <path d="M1147.02,277.6c.23,.23,.54,.35,.84,.35s.61-.12,.85-.35l190.85-191.05c-.58-.51-1.17-1.05-1.77-1.61l-190.78,190.98c-.47,.47-.47,1.22,0,1.69Z" style="fill: #b2a382; opacity: .49;"/>
      <path d="M1159.06,275.92c.23,.23,.54,.35,.84,.35s.62-.12,.85-.36l184.17-185.26c-.65-.43-1.31-.89-1.99-1.39l-183.88,184.97c-.46,.47-.46,1.23,0,1.69Z" style="fill: #b2a382; opacity: .49;"/>
      <path d="M1163.22,278.38c-.47,.47-.47,1.22,0,1.69,.23,.23,.54,.35,.85,.35s.61-.12,.85-.35l186.04-186.04c-.69-.32-1.45-.69-2.26-1.12l-185.47,185.47Z" style="fill: #b2a382; opacity: .49;"/>
    </g>
    <path d="M457.24,307.78c1.42-4.83,2.12-7.25,2.12-7.25-2.05-.49-4.16-.35-6.17,.4,1.49,4.64,2.24,6.97,2.24,6.97,.66,1.64,1.27,1.6,1.81-.11m3.2-11.34c6.19-22.05,9.29-33.07,9.29-33.07-3.52,1.71-7.46-.1-9.41-4.31-2.88,3.36-7.15,3.57-10.21,.5-1.77,4.35-5.54,6.58-9.18,5.44,7.23,21.27,10.84,31.91,10.84,31.91,2.76-1.48,5.83-1.64,8.67-.47Zm9.38-107.57v-14.54l-.02-3.05v-16.21l-.02-3.43v-14.32l-.02-3.74v-11.57l-.03-22.69-28.05,25.46,.05,49.88h0l.04,39.66v14.58l.02,4.05v17.8l.02,.44v8.92c1.96,.61,4-.61,4.95-2.94l1.85-4.56-.03-34.86v-1.41l-.08-86.86,14.45-13.11,.06,69.04v1.41l.07,68.57,.48,1.04c1.01,2.17,3.05,3.1,4.86,2.23l1.47-.71v-14.19l-.02-1.86v-13.38l-.05-39.67Zm-10.95,65.18l.24-112.16-6.8,6.12-.05,107.42,.13,.13c1.61,1.62,3.87,1.51,5.39-.26l1.08-1.26Z" style="fill: #fff; fill-rule: evenodd;"/>
    <path d="M1252.7,113.27l-108.14,108.14c-14.72,14.72-38.58,14.72-53.3,0l-51.2-51.2c-16.26-16.26-16.26-42.63,0-58.89L1145.4,5.97c7.96-7.96,20.86-7.96,28.81,0l44.31,44.3-3.08,3.43s3.25,11.43,12.55,20.25c11.37,10.78,19.3,11.84,19.3,11.84l3.67-3.08,1.74,1.74c7.96,7.96,7.96,20.86,0,28.81Z" style="fill: #999;"/>
    <path d="M1072.73,160.91l-39.89-39.89c-8.5,15.77-6.1,35.86,7.22,49.18l41,41,10.21,10.21c14.72,14.72,38.58,14.72,53.3,0l108.14-108.14c7.96-7.96,7.96-20.86,0-28.81l-1.93-1.89-3.29,3.46s-8.84-1.54-19.61-12.43c-10.31-10.42-12.43-20.01-12.43-20.01l3.2-3.08-7.14-7.25-117.64,117.64c-5.84,5.84-15.29,5.85-21.13,.01Z" style="fill: #636568;"/>
    <path d="M1102.25,166.36c-8.9,8.9-8.9,23.34,0,32.25h0c8.9,8.9,23.34,8.9,32.25,0l112.96-112.54s-9.51-2.17-19.7-12.35c-9.71-9.71-12.55-19.89-12.55-19.89l-112.96,112.54Z" style="fill: #fcf2dd;"/>
    <path d="M1227.94,73.72c-9.71-9.71-12.43-20.19-12.43-20.19l-113.26,112.83c-8.9,8.9-8.9,23.34,0,32.25h0c.78,.78,1.62,1.47,2.48,2.12,.16,.12,.33,.25,.5,.36,.88,.62,1.79,1.19,2.74,1.68h0l124.7-124.69c-1.59-1.26-3.05-2.69-4.72-4.36Z" style="fill: #cabd9b; opacity: .55;"/>
    <path d="M1102.54,175.26c.25,.25,.57,.37,.89,.37s.64-.12,.89-.37l114.08-114.08c-.45-.83-.86-1.63-1.2-2.36l-114.66,114.66c-.49,.49-.49,1.29,0,1.78Z" style="fill: #b2a382; opacity: .49;"/>
    <path d="M1100.29,186.39c.25,.25,.57,.37,.89,.37s.64-.12,.89-.37l119.78-119.68c-.51-.72-.99-1.43-1.43-2.12l-120.12,120.02c-.49,.49-.49,1.29,0,1.78Z" style="fill: #b2a382; opacity: .49;"/>
    <path d="M1111.77,184.49c.25,.25,.57,.37,.89,.37s.64-.12,.89-.37l112.53-112.53c-.58-.63-1.14-1.27-1.66-1.9l-112.65,112.65c-.49,.49-.49,1.29,0,1.78Z" style="fill: #b2a382; opacity: .49;"/>
    <path d="M1109.17,196.33c.24,.24,.57,.37,.89,.37s.65-.12,.89-.37l119.71-119.92c-.62-.54-1.23-1.1-1.86-1.7l-119.63,119.84c-.49,.49-.49,1.29,0,1.78Z" style="fill: #b2a382; opacity: .49;"/>
    <path d="M1121.84,194.56c.24,.24,.57,.36,.88,.36s.65-.12,.89-.37l112.67-113.82c-.68-.45-1.38-.94-2.09-1.47l-112.37,113.52c-.49,.49-.48,1.29,0,1.78Z" style="fill: #b2a382; opacity: .49;"/>
    <path d="M1126.22,197.16c-.49,.49-.49,1.29,0,1.78,.25,.25,.57,.37,.89,.37s.64-.12,.89-.37l114.65-114.65c-.73-.33-1.53-.73-2.38-1.18l-114.05,114.05Z" style="fill: #b2a382; opacity: .49;"/>
  </g>
</svg>